<svg id="uuid-c68f0b0b-62c5-4fc6-b528-1c9f23ef2a94" xmlns="http://www.w3.org/2000/svg" xmlns:xlink="http://www.w3.org/1999/xlink" viewBox="0 0 451 462"><defs><clipPath id="uuid-1b27ebc9-7a4d-4f3f-9c14-b565a238bc67"><rect width="451" height="462" style="fill:none;"/></clipPath></defs><g style="clip-path:url(#uuid-1b27ebc9-7a4d-4f3f-9c14-b565a238bc67);"><g><rect width="451" height="462" style="fill:#fff;"/><path d="M261,375.5L72,133" style="fill:none; stroke:#112444; stroke-miterlimit:8; stroke-width:6px;"/><path d="M104,290.4L260.8,65" style="fill:none; stroke:#112444; stroke-miterlimit:8; stroke-width:6px;"/><path d="M260.6,208.5L70,133" style="fill:none; stroke:#112444; stroke-miterlimit:8; stroke-width:6px;"/><path d="M261,208.9l119.4,23.9" style="fill:none; stroke:#112444; stroke-miterlimit:8; stroke-width:6px;"/><path d="M70,327.9l195.1,54.4" style="fill:none; stroke:#112444; stroke-miterlimit:8; stroke-width:6px;"/><path d="M261,209v167" style="fill:none; stroke:#112444; stroke-miterlimit:8; stroke-width:6px;"/><path d="M261,376l143.2-167" style="fill:none; stroke:#112444; stroke-miterlimit:8; stroke-width:6px;"/><path d="M279,71l101.4,161.7" style="fill:none; stroke:#112444; stroke-miterlimit:8; stroke-width:6px;"/><path d="M70,136.6l191-71.6" style="fill:none; stroke:#112444; stroke-miterlimit:8; stroke-width:6px;"/><path d="M341,223.4c0-21.8,17.9-39.5,40-39.5s40,17.7,40,39.5-17.9,39.5-40,39.5-40-17.7-40-39.5Z" style="fill:#112444; fill-rule:evenodd; stroke:#112444; stroke-miterlimit:8; stroke-width:6px;"/><path d="M225,381.9c0-22.1,17.9-40,40-40s40,17.9,40,40-17.9,40-40,40-40-18-40-40Z" style="fill:#203e70; fill-rule:evenodd; stroke:#112444; stroke-miterlimit:8; stroke-width:6px;"/><path d="M36,318.9c0-22.1,17.9-40,40-40s40,17.9,40,40-17.9,40-40,40-40-17.9-40-40Z" style="fill:#92a8c0; fill-rule:evenodd; stroke:#112444; stroke-miterlimit:8; stroke-width:6px;"/><path d="M31,134c0-22.1,17.7-40,39.5-40s39.5,17.9,39.5,40-17.7,40-39.5,40c-21.8-.1-39.5-18-39.5-40Z" style="fill:#92a8c0; fill-rule:evenodd; stroke:#112444; stroke-miterlimit:8; stroke-width:6px;"/><path d="M227,72c0-22.1,17.9-40,40-40s40,17.9,40,40-17.9,40-40,40-40-17.9-40-40Z" style="fill:#203e70; fill-rule:evenodd; stroke:#112444; stroke-miterlimit:8; stroke-width:6px;"/><path d="M211,207.9c0-22.1,17.9-40,40-40s40,17.9,40,40-17.9,40-40,40-40-17.9-40-40Z" style="fill:#eef3ed; fill-rule:evenodd; stroke:#112444; stroke-miterlimit:8; stroke-width:6px;"/></g></g></svg>